<?xml version="1.0" encoding="utf-8"?>
<!-- Generator: Adobe Illustrator 24.0.2, SVG Export Plug-In . SVG Version: 6.00 Build 0)  -->
<svg version="1.1" id="Layer_1" xmlns="http://www.w3.org/2000/svg" xmlns:xlink="http://www.w3.org/1999/xlink" x="0px" y="0px"
	 viewBox="0 0 512 512" style="enable-background:new 0 0 512 512;" xml:space="preserve">
<style type="text/css">
	.st0{fill:none;}
	.st1{fill:#FAC369;}
	.st2{fill:#FFA745;}
	.st3{fill:#ED5E40;}
	.st4{fill:#DD8571;}
	.st5{fill:url(#New_Pattern_Swatch_5);}
	.st6{fill:#FCDAB5;stroke:#FEB157;stroke-width:10;stroke-miterlimit:10;}
	.st7{fill:url(#New_Pattern_Swatch_9);}
</style>
<pattern  width="52" height="52" patternUnits="userSpaceOnUse" id="New_Pattern_Swatch_5" viewBox="0 -52 52 52" style="overflow:visible;">
	<g>
		<rect y="-52" class="st0" width="52" height="52"/>
		<rect y="-52" class="st1" width="52" height="52"/>
		<circle class="st2" cx="9.25" cy="-43.75" r="1.5"/>
		<circle class="st2" cx="42.25" cy="-22.75" r="1.5"/>
		<circle class="st2" cx="21.25" cy="-27.75" r="1.5"/>
		<circle class="st2" cx="37.25" cy="-39.75" r="1.5"/>
		<circle class="st2" cx="9.25" cy="-6.75" r="1.5"/>
	</g>
</pattern>
<pattern  width="52" height="52" patternUnits="userSpaceOnUse" id="New_Pattern_Swatch_9" viewBox="0 -52 52 52" style="overflow:visible;">
	<g>
		<rect y="-52" class="st0" width="52" height="52"/>
		<rect y="-52" class="st3" width="52" height="52"/>
		<ellipse class="st4" cx="12.75" cy="-21.75" rx="1" ry="8.5"/>
		<ellipse class="st4" cx="4.75" cy="-12.75" rx="1" ry="8.5"/>
		<ellipse class="st4" cx="20.75" cy="-23.75" rx="1" ry="8.5"/>
		<ellipse class="st4" cx="26.75" cy="-11.75" rx="1" ry="8.5"/>
		<ellipse class="st4" cx="30.75" cy="-32.75" rx="1" ry="8.5"/>
		<ellipse class="st4" cx="36.75" cy="-28.75" rx="1" ry="8.5"/>
		<ellipse class="st4" cx="47.75" cy="-41.75" rx="1" ry="8.5"/>
		<ellipse class="st4" cx="43.75" cy="-12.75" rx="1" ry="8.5"/>
		<ellipse class="st4" cx="7.75" cy="-42.75" rx="1" ry="8.5"/>
		<ellipse class="st4" cx="19.75" cy="-42.75" rx="1" ry="8.5"/>
	</g>
</pattern>
<g>
</g>
<circle class="st5" cx="159.65" cy="200.65" r="120.65"/>
<circle class="st6" cx="303.61" cy="280.36" r="166.39"/>
<path class="st7" d="M314.85,254.17l37.13-78.85c6.3-13.39-1.54-29.16-16.02-32.2l-9.26-1.95c-14.64-3.08-28.28,8.39-27.75,23.34
	l3.04,87.02C302.22,258.61,311.83,260.58,314.85,254.17z"/>
<path class="st7" d="M327.46,264.08l67.75-54.84c11.5-9.31,11.3-26.92-0.41-35.97l-7.49-5.78c-11.84-9.14-29.11-4.75-35.15,8.93
	l-35.14,79.67C314.16,262.58,321.95,268.54,327.46,264.08z"/>
<path class="st7" d="M301.52,250.6l-4.7-87.03c-0.8-14.78-15.18-24.94-29.38-20.75l-9.08,2.68c-14.35,4.23-20.92,20.8-13.37,33.71
	l43.94,75.18C292.51,260.5,301.9,257.68,301.52,250.6z"/>
<path class="st7" d="M289.45,256.1l-45.38-74.41c-7.71-12.63-25.19-14.77-35.7-4.35l-6.72,6.66c-10.63,10.52-8.56,28.23,4.2,36.02
	l74.32,45.37C286.21,269.09,293.14,262.16,289.45,256.1z"/>
<path class="st7" d="M279.47,266.86l-74.17-45.78c-12.59-7.77-29.14-1.75-33.8,12.29l-2.98,8.98c-4.71,14.2,5.15,29.04,20.06,30.21
	l86.81,6.79C282.46,279.9,285.51,270.58,279.47,266.86z"/>
<path class="st7" d="M276.41,280.7l-86.97-5.74c-14.77-0.97-26.58,12.09-24.12,26.68l1.57,9.33c2.48,14.75,18.15,23.25,31.87,17.3
	l79.89-34.64C285.16,290.83,283.49,281.17,276.41,280.7z"/>
<path class="st7" d="M279.64,294.68l-79.52,35.67c-13.5,6.06-17.82,23.13-8.81,34.87l5.76,7.51c9.1,11.87,26.93,12.04,36.26,0.36
	l54.36-68.02C292.12,299.53,286.11,291.78,279.64,294.68z"/>
<path class="st7" d="M334.71,276.44l85.28-17.97c14.48-3.05,22.32-18.82,16.01-32.21l-4.03-8.56c-6.38-13.53-23.75-17.49-35.36-8.05
	l-67.56,54.93C323.55,269.05,327.77,277.9,334.71,276.44z"/>
<path class="st7" d="M334.24,291.31l83.77,24.07c14.22,4.09,28.54-6.17,29.23-20.96l0.44-9.45c0.7-14.94-12.8-26.57-27.47-23.67
	l-85.42,16.89C327.84,279.56,327.43,289.36,334.24,291.31z"/>
<path class="st7" d="M328.57,304.58l63.82,59.36c10.84,10.08,28.24,7.4,35.55-5.46l4.67-8.23c7.39-13,0.61-29.49-13.79-33.54
	L335,293.12C328.18,291.2,323.37,299.75,328.57,304.58z"/>
<path class="st7" d="M316.26,311.74l27.51,82.7c4.67,14.04,21.23,20.05,33.81,12.26l8.05-4.98c12.72-7.87,14.68-25.58,3.99-36.04
	l-62.23-60.9C322.33,299.81,314.02,305.01,316.26,311.74z"/>
<path class="st7" d="M302.62,312.74l-15.77,85.72c-2.68,14.56,8.93,27.8,23.71,27.05l9.45-0.48c14.94-0.76,25.2-15.33,20.88-29.65
	l-25.15-83.36C313.69,305.23,303.9,305.77,302.62,312.74z"/>
<path class="st7" d="M288.62,306.31l-54.75,67.82c-9.3,11.52-5.41,28.69,7.94,35.08l8.54,4.09c13.49,6.46,29.46-1.46,32.49-16.1
	l17.66-85.26C301.94,304.98,293.07,300.79,288.62,306.31z"/>
</svg>
