<svg xmlns="http://www.w3.org/2000/svg" xmlns:xlink="http://www.w3.org/1999/xlink" viewBox="0 0 1883.29 371.75"><defs><style>.a{fill:none;}.b{fill:#fac369;}.c{fill:#ffa745;}.d{fill:#ed5e40;}.e{fill:#dd8571;}.f{fill:url(#a);}.g{fill:#fcdab5;stroke:#feb157;stroke-miterlimit:10;stroke-width:10px;}.h{fill:url(#b);}.i{fill:url(#o);}.j{fill:#498849;}.k{fill:#5e9b4d;}</style><pattern id="a" x="-39" y="-80" width="52" height="52" patternUnits="userSpaceOnUse" viewBox="0 0 52 52"><rect class="a" width="52" height="52"/><rect class="b" width="52" height="52"/><circle class="c" cx="9.25" cy="8.25" r="1.5"/><circle class="c" cx="42.25" cy="29.25" r="1.5"/><circle class="c" cx="21.25" cy="24.25" r="1.5"/><circle class="c" cx="37.25" cy="12.25" r="1.5"/><circle class="c" cx="9.25" cy="45.25" r="1.5"/></pattern><pattern id="b" width="52" height="52" patternUnits="userSpaceOnUse" viewBox="0 0 52 52"><rect class="a" width="52" height="52"/><rect class="d" width="52" height="52"/><ellipse class="e" cx="12.75" cy="30.25" rx="1" ry="8.5"/><ellipse class="e" cx="4.75" cy="39.25" rx="1" ry="8.5"/><ellipse class="e" cx="20.75" cy="28.25" rx="1" ry="8.5"/><ellipse class="e" cx="26.75" cy="40.25" rx="1" ry="8.5"/><ellipse class="e" cx="30.75" cy="19.25" rx="1" ry="8.5"/><ellipse class="e" cx="36.75" cy="23.25" rx="1" ry="8.5"/><ellipse class="e" cx="47.75" cy="10.25" rx="1" ry="8.5"/><ellipse class="e" cx="43.75" cy="39.25" rx="1" ry="8.5"/><ellipse class="e" cx="7.75" cy="9.25" rx="1" ry="8.5"/><ellipse class="e" cx="19.75" cy="9.25" rx="1" ry="8.5"/></pattern><pattern id="o" width="52" height="52" patternUnits="userSpaceOnUse" viewBox="0 0 52 52"><rect class="a" width="52" height="52"/><rect class="b" width="52" height="52"/><circle class="c" cx="9.25" cy="8.25" r="1.5"/><circle class="c" cx="42.25" cy="29.25" r="1.5"/><circle class="c" cx="21.25" cy="24.25" r="1.5"/><circle class="c" cx="37.25" cy="12.25" r="1.5"/><circle class="c" cx="9.25" cy="45.25" r="1.5"/></pattern></defs><title>grapefruit</title><circle class="f" cx="120.65" cy="120.65" r="120.65"/><circle class="g" cx="264.61" cy="200.36" r="166.39"/><path class="h" d="M314.85,254.17,352,175.31a22.92,22.92,0,0,0-16-32.2l-9.26-2a23,23,0,0,0-27.76,23.34l3,87A6.77,6.77,0,0,0,314.85,254.17Z" transform="translate(-39 -80)"/><path class="h" d="M327.46,264.08l67.74-54.84a22.91,22.91,0,0,0-.41-36l-7.49-5.79a23,23,0,0,0-35.14,8.94L317,256.09A6.76,6.76,0,0,0,327.46,264.08Z" transform="translate(-39 -80)"/><path class="h" d="M301.52,250.6l-4.7-87a22.92,22.92,0,0,0-29.38-20.75l-9.07,2.67A23,23,0,0,0,245,179.2l43.93,75.18A6.76,6.76,0,0,0,301.52,250.6Z" transform="translate(-39 -80)"/><path class="h" d="M289.45,256.1l-45.38-74.4a22.93,22.93,0,0,0-35.71-4.36L201.64,184a23,23,0,0,0,4.2,36l74.32,45.37A6.76,6.76,0,0,0,289.45,256.1Z" transform="translate(-39 -80)"/><path class="h" d="M279.47,266.86,205.3,221.08a22.92,22.92,0,0,0-33.8,12.29l-3,9a23,23,0,0,0,20.06,30.21l86.81,6.79A6.76,6.76,0,0,0,279.47,266.86Z" transform="translate(-39 -80)"/><path class="h" d="M276.41,280.7l-87-5.74a22.92,22.92,0,0,0-24.11,26.69L166.9,311a23,23,0,0,0,31.87,17.3l79.88-34.63A6.76,6.76,0,0,0,276.41,280.7Z" transform="translate(-39 -80)"/><path class="h" d="M279.64,294.68l-79.52,35.67a22.93,22.93,0,0,0-8.81,34.87l5.76,7.51a23,23,0,0,0,36.26.36l54.36-68A6.76,6.76,0,0,0,279.64,294.68Z" transform="translate(-39 -80)"/><path class="h" d="M334.71,276.44l85.28-18a22.93,22.93,0,0,0,16-32.21l-4-8.56a23,23,0,0,0-35.36-8l-67.56,54.93A6.76,6.76,0,0,0,334.71,276.44Z" transform="translate(-39 -80)"/><path class="h" d="M334.24,291.31,418,315.38a22.92,22.92,0,0,0,29.23-21l.45-9.45a23,23,0,0,0-27.47-23.67L334.8,278.18A6.76,6.76,0,0,0,334.24,291.31Z" transform="translate(-39 -80)"/><path class="h" d="M328.57,304.58l63.81,59.36a22.93,22.93,0,0,0,35.55-5.46l4.68-8.23a23,23,0,0,0-13.79-33.54L335,293.12A6.76,6.76,0,0,0,328.57,304.58Z" transform="translate(-39 -80)"/><path class="h" d="M316.26,311.74l27.51,82.7a22.92,22.92,0,0,0,33.81,12.26l8.05-5a23,23,0,0,0,4-36L327.4,304.77A6.76,6.76,0,0,0,316.26,311.74Z" transform="translate(-39 -80)"/><path class="h" d="M302.62,312.74l-15.77,85.72a22.93,22.93,0,0,0,23.71,27.05L320,425a23,23,0,0,0,20.88-29.65L315.74,312A6.76,6.76,0,0,0,302.62,312.74Z" transform="translate(-39 -80)"/><path class="h" d="M288.62,306.31l-54.75,67.82a22.92,22.92,0,0,0,7.94,35.08l8.54,4.08a23,23,0,0,0,32.49-16.1l17.66-85.26A6.76,6.76,0,0,0,288.62,306.31Z" transform="translate(-39 -80)"/><path class="i" d="M601.84,355.8a32.37,32.37,0,0,1-32.4-32.4v-108a32.37,32.37,0,0,1,32.4-32.4h108a32.37,32.37,0,0,1,32.4,32.4v11.76h-29v-6.72q0-6-1.32-7.2t-7.32-1.2H606.88q-6,0-7.32,1.2t-1.32,7.2v97.92q0,6,1.32,7.2t7.32,1.2h97.68q6,0,7.32-1.2t1.32-7.2V288.6H673.36v-29h68.88V323.4a32.37,32.37,0,0,1-32.4,32.4Z" transform="translate(-39 -80)"/><path class="i" d="M767.68,355.8v-107a32.37,32.37,0,0,1,32.16-32.16h77.52v28.56H804.88c-4,0-6.45.44-7.32,1.32s-1.32,3.32-1.32,7.32v102Z" transform="translate(-39 -80)"/><path class="i" d="M927,355.8a30.83,30.83,0,0,1-22.8-9.48,31.15,31.15,0,0,1-9.36-22.68V271.8h112.8v-18q0-6-1.32-7.32T999,245.16H894.87V216.6h109.2a30.83,30.83,0,0,1,22.8,9.48,31.15,31.15,0,0,1,9.36,22.68v107Zm5-28.56h75.6V298H923.43V318.6q0,6,1.32,7.32T932.07,327.24Z" transform="translate(-39 -80)"/><path class="i" d="M1061.91,411V216.6h109.44a30.55,30.55,0,0,1,22.56,9.48,31.15,31.15,0,0,1,9.36,22.68v74.88a31.15,31.15,0,0,1-9.36,22.68,30.55,30.55,0,0,1-22.56,9.48h-80.88V411Zm37.44-83.76h66.72q6,0,7.32-1.32t1.32-7.32V253.8q0-6-1.32-7.32t-7.32-1.32h-66.72q-6,0-7.44,1.32t-1.44,7.32v64.8q0,6,1.44,7.32T1099.35,327.24Z" transform="translate(-39 -80)"/><path class="i" d="M1252.71,355.8a32.37,32.37,0,0,1-32.16-32.16V248.76a32.37,32.37,0,0,1,32.16-32.16h77a30.83,30.83,0,0,1,22.8,9.48,31.15,31.15,0,0,1,9.36,22.68V300.6h-112.8v18c0,4,.43,6.44,1.32,7.32s3.32,1.32,7.32,1.32h104.16V355.8Zm-3.6-81.36h84.24V253.8c0-4-.45-6.44-1.32-7.32s-3.33-1.32-7.32-1.32h-67c-4,0-6.45.44-7.32,1.32s-1.32,3.32-1.32,7.32Z" transform="translate(-39 -80)"/><path class="i" d="M1387.1,355.8V203.16A32,32,0,0,1,1419.26,171h52.08v28.8h-47q-6,0-7.32,1.32t-1.32,7.08v8.4h55.68v28.56h-55.68V355.8Z" transform="translate(-39 -80)"/><path class="i" d="M1488.62,355.8v-107a32.37,32.37,0,0,1,32.16-32.16h77.52v28.56h-72.48q-6,0-7.32,1.32t-1.32,7.32v102Z" transform="translate(-39 -80)"/><path class="i" d="M1648.22,355.8a30.83,30.83,0,0,1-22.8-9.48,31.15,31.15,0,0,1-9.36-22.68v-107h28.56v102q0,6,1.32,7.32t7.32,1.32h67q6,0,7.32-1.32t1.32-7.32v-102h28.56v107a31.15,31.15,0,0,1-9.36,22.68,30.83,30.83,0,0,1-22.8,9.48Z" transform="translate(-39 -80)"/><path class="i" d="M1782.62,355.8V216.6h28.56V355.8Z" transform="translate(-39 -80)"/><path class="i" d="M1870.21,355.8a30.83,30.83,0,0,1-22.8-9.48,31.15,31.15,0,0,1-9.36-22.68V173.16h28.56V216.6h55.68v28.56h-55.68V318.6q0,6,1.32,7.32t7.32,1.32h47V355.8Z" transform="translate(-39 -80)"/><path class="j" d="M1832.32,129s4.27,27.13-6.44,45-37.3,26.87-37.3,26.87-1-28.08,9.16-45.11S1832.32,129,1832.32,129Z" transform="translate(-39 -80)"/><path class="k" d="M1832.32,129A88,88,0,0,0,1803,149.35c-11.43,13.11-13.13,34.7-13.13,34.7s25.17,2.34,35.27-13.17C1834.75,156.07,1832.32,129,1832.32,129Z" transform="translate(-39 -80)"/></svg>